<svg version="1.1"
     xmlns="http://www.w3.org/2000/svg"
     x="0px"
     y="0px"
     viewBox="0 0 1000 1000"
     xml:space="preserve">
  <g>
    <path d="M783.5,623.5v103.8c0,43.4-15.5,80.5-46.4,111.3c-31,30.8-68.2,46.2-111.8,46.2H168.2c-43.6,0-80.9-15.4-111.8-46.2C25.5,807.8,10,770.7,10,727.3V272.6c0-43.4,15.4-80.4,46.4-111.2c31-30.8,68.2-46.2,111.8-46.2h457.1c23.1,0,44.5,4.5,64.3,13.7c5.5,2.6,8.9,6.7,9.9,12.5c1.1,6.2-0.6,11.5-4.9,15.9l-26.9,26.8c-5.1,5.1-11,6.6-17.6,4.4c-8.5-2.3-16.7-3.4-24.7-3.4H168.2c-24.2,0-44.9,8.5-62.1,25.6c-17.2,17.2-25.8,37.8-25.8,61.8v454.7c0,24.1,8.6,44.7,25.8,61.8s37.9,25.7,62.1,25.7h457.1c24.2,0,44.8-8.6,62.1-25.7c17.2-17.1,25.8-37.7,25.8-61.8v-68.9c0-4.7,1.6-8.7,4.9-12l35.1-34.9c5.5-5.5,11.9-6.8,19.2-3.9C779.8,610.5,783.5,615.8,783.5,623.5z M730.7,220.1l158.2,157.4L519.8,744.8H361.6V587.4L730.7,220.1z M497.8,692.4l63.7-63.4L478,545.9l-63.7,63.4v30.6h52.8v52.5H497.8z M739.5,298.8c-5.9-5.8-11.9-5.7-18.1,0.6L529.1,490.7c-6.2,6.1-6.4,12.2-0.6,18c5.8,5.8,11.9,5.7,18.1-0.6L739,316.9C745.2,310.7,745.4,304.7,739.5,298.8z M974.6,292.2l-50.5,50.3L765.9,185.1l50.5-50.3c10.2-10.2,22.7-15.3,37.3-15.3c14.6,0,27.1,5.1,37.3,15.3l83.4,83.1c10.3,10.3,15.5,22.6,15.5,37.2S984.8,282,974.6,292.2z" style="fill: rgb(107, 107, 107);"></path>
  </g>
</svg>
